<svg xmlns="http://www.w3.org/2000/svg" version="1.1" style="font-family:Lato, &#x27;Helvetica Neue&#x27;, Helvetica, Arial, sans-serif;font-size:18px;background-color:white;text-rendering:optimizeLegibility;-webkit-font-smoothing:antialiased" width="850" height="600"><g class="HeaderView"><g transform="translate(774, 15) scale(0.29)"><svg width="210" height="120" viewBox="0 0 210 120" fill="none" xmlns="http://www.w3.org/2000/svg"><defs>
        <clipPath id="clip0">
            <rect width="210" height="120" fill="white"/>
        </clipPath>
    </defs>
</svg></g><a href="https://ourworldindata.org/grapher/daily-hours-spent-with-digital-media-per-adult-user" target="_blank"><text font-size="25.20" x="15.0" y="35.2" fill="#555"><tspan x="15" y="35.160000000000004">Daily hours spent with digital media, United States</tspan></text></a><text font-size="14.40" x="15.0" y="53.7" fill="#666"><tspan x="15" y="53.72">Average hours per day spent engaging with digital media (e.g. digital images and videos, web pages, social media</tspan><tspan x="15" y="69.56">apps, etc.) The data for &#x27;other connected devices&#x27; includes game consoles. Mobile includes smartphones &amp; tablets.</tspan><tspan x="15" y="85.4">All data includes both home &amp; work usage for people 18+.</tspan></text></g><g class="StackedBarChart"><defs><clipPath id="boundsClip-1"><rect x="74.27000000000001" y="105.60000000000001" width="584.956" height="429.7"></rect></clipPath></defs><rect x="15" y="105.60000000000001" width="820" height="450.9" opacity="0" fill="rgba(255,255,255,0)"></rect><g class="VerticalAxis"><text x="69.27" y="535.3" fill="#666" dominant-baseline="middle" text-anchor="end" font-size="16.2">0 hours</text><text x="69.27" y="467.1" fill="#666" dominant-baseline="middle" text-anchor="end" font-size="16.2">1 hours</text><text x="69.27" y="398.9" fill="#666" dominant-baseline="middle" text-anchor="end" font-size="16.2">2 hours</text><text x="69.27" y="330.7" fill="#666" dominant-baseline="middle" text-anchor="end" font-size="16.2">3 hours</text><text x="69.27" y="262.5" fill="#666" dominant-baseline="middle" text-anchor="end" font-size="16.2">4 hours</text><text x="69.27" y="194.3" fill="#666" dominant-baseline="middle" text-anchor="end" font-size="16.2">5 hours</text><text x="69.27" y="126.1" fill="#666" dominant-baseline="middle" text-anchor="end" font-size="16.2">6 hours</text></g><g class="AxisGridLines"><line x1="74.27" y1="535.3" x2="659.23" y2="535.3" stroke="#ccc"></line><line x1="74.27" y1="467.1" x2="659.23" y2="467.1" stroke="#ddd" stroke-dasharray="3,2"></line><line x1="74.27" y1="398.9" x2="659.23" y2="398.9" stroke="#ddd" stroke-dasharray="3,2"></line><line x1="74.27" y1="330.7" x2="659.23" y2="330.7" stroke="#ddd" stroke-dasharray="3,2"></line><line x1="74.27" y1="262.5" x2="659.23" y2="262.5" stroke="#ddd" stroke-dasharray="3,2"></line><line x1="74.27" y1="194.3" x2="659.23" y2="194.3" stroke="#ddd" stroke-dasharray="3,2"></line><line x1="74.27" y1="126.1" x2="659.23" y2="126.1" stroke="#ddd" stroke-dasharray="3,2"></line></g><g><text x="88.0326909090909" y="553.26" fill="#666" font-size="16.2">2008</text><text x="141.21050909090908" y="553.26" fill="#666" font-size="16.2">2009</text><text x="194.38832727272725" y="553.26" fill="#666" font-size="16.2">2010</text><text x="247.5661454545454" y="553.26" fill="#666" font-size="16.2">2011</text><text x="300.74396363636356" y="553.26" fill="#666" font-size="16.2">2012</text><text x="353.9217818181817" y="553.26" fill="#666" font-size="16.2">2013</text><text x="407.0995999999999" y="553.26" fill="#666" font-size="16.2">2014</text><text x="460.27741818181806" y="553.26" fill="#666" font-size="16.2">2015</text><text x="513.4552363636362" y="553.26" fill="#666" font-size="16.2">2016</text><text x="566.6330545454545" y="553.26" fill="#666" font-size="16.2">2017</text><text x="619.8108727272727" y="553.26" fill="#666" font-size="16.2">2018</text></g><g clip-path="url(#boundsClip-1)"><g class="United-States_2-segments"><rect x="84.90556363636364" y="521.7" width="42.54225454545455" height="13.599999999999909" fill="#3360a9" opacity="0.8"></rect><rect x="138.0833818181818" y="514.8" width="42.54225454545455" height="20.5" fill="#3360a9" opacity="0.8"></rect><rect x="191.26119999999997" y="508" width="42.54225454545455" height="27.299999999999955" fill="#3360a9" opacity="0.8"></rect><rect x="244.43901818181814" y="514.8" width="42.54225454545455" height="20.5" fill="#3360a9" opacity="0.8"></rect><rect x="297.6168363636363" y="514.8" width="42.54225454545455" height="20.5" fill="#3360a9" opacity="0.8"></rect><rect x="350.7946545454545" y="514.8" width="42.54225454545455" height="20.5" fill="#3360a9" opacity="0.8"></rect><rect x="403.97247272727265" y="514.8" width="42.54225454545455" height="20.5" fill="#3360a9" opacity="0.8"></rect><rect x="457.1502909090908" y="508" width="42.54225454545455" height="27.299999999999955" fill="#3360a9" opacity="0.8"></rect><rect x="510.328109090909" y="508" width="42.54225454545455" height="27.299999999999955" fill="#3360a9" opacity="0.8"></rect><rect x="563.5059272727271" y="494.4" width="42.54225454545455" height="40.89999999999998" fill="#3360a9" opacity="0.8"></rect><rect x="616.6837454545454" y="487.6" width="42.54225454545455" height="47.69999999999993" fill="#3360a9" opacity="0.8"></rect></g><g class="United-States_1-segments"><rect x="84.90556363636364" y="371.6" width="42.54225454545455" height="150.10000000000002" fill="#34983f" opacity="0.8"></rect><rect x="138.0833818181818" y="358" width="42.54225454545455" height="156.79999999999995" fill="#34983f" opacity="0.8"></rect><rect x="191.26119999999997" y="344.3" width="42.54225454545455" height="163.7" fill="#34983f" opacity="0.8"></rect><rect x="244.43901818181814" y="337.5" width="42.54225454545455" height="177.29999999999995" fill="#34983f" opacity="0.8"></rect><rect x="297.6168363636363" y="344.3" width="42.54225454545455" height="170.49999999999994" fill="#34983f" opacity="0.8"></rect><rect x="350.7946545454545" y="358" width="42.54225454545455" height="156.79999999999995" fill="#34983f" opacity="0.8"></rect><rect x="403.97247272727265" y="364.8" width="42.54225454545455" height="149.99999999999994" fill="#34983f" opacity="0.8"></rect><rect x="457.1502909090908" y="358" width="42.54225454545455" height="150" fill="#34983f" opacity="0.8"></rect><rect x="510.328109090909" y="358" width="42.54225454545455" height="150" fill="#34983f" opacity="0.8"></rect><rect x="563.5059272727271" y="351.1" width="42.54225454545455" height="143.29999999999995" fill="#34983f" opacity="0.8"></rect><rect x="616.6837454545454" y="351.1" width="42.54225454545455" height="136.5" fill="#34983f" opacity="0.8"></rect></g><g class="United-States_0-segments"><rect x="84.90556363636364" y="351.1" width="42.54225454545455" height="20.5" fill="#ffd53e" opacity="0.8"></rect><rect x="138.0833818181818" y="337.5" width="42.54225454545455" height="20.5" fill="#ffd53e" opacity="0.8"></rect><rect x="191.26119999999997" y="317" width="42.54225454545455" height="27.30000000000001" fill="#ffd53e" opacity="0.8"></rect><rect x="244.43901818181814" y="282.9" width="42.54225454545455" height="54.60000000000002" fill="#ffd53e" opacity="0.8"></rect><rect x="297.6168363636363" y="235.2" width="42.54225454545455" height="109.10000000000002" fill="#ffd53e" opacity="0.8"></rect><rect x="350.7946545454545" y="201.1" width="42.54225454545455" height="156.9" fill="#ffd53e" opacity="0.8"></rect><rect x="403.97247272727265" y="187.4" width="42.54225454545455" height="177.4" fill="#ffd53e" opacity="0.8"></rect><rect x="457.1502909090908" y="167" width="42.54225454545455" height="191" fill="#ffd53e" opacity="0.8"></rect><rect x="510.328109090909" y="146.5" width="42.54225454545455" height="211.5" fill="#ffd53e" opacity="0.8"></rect><rect x="563.5059272727271" y="126.1" width="42.54225454545455" height="225.00000000000003" fill="#ffd53e" opacity="0.8"></rect><rect x="616.6837454545454" y="105.6" width="42.54225454545455" height="245.50000000000003" fill="#ffd53e" opacity="0.8"></rect></g></g><g class="ScatterColorLegend clickable" style="cursor:pointer"><g class="legendMark"><rect x="679.226" y="103.10000000000001" width="48.17" height="17.6" fill="#fff" opacity="0"></rect>,<rect x="679.226" y="108.60000000000001" width="6" height="6" fill="#ffd53e"></rect>,<text font-size="12.60" x="690.2" y="115.7"><tspan x="690.226" y="115.68">Mobile</tspan></text></g><g class="legendMark"><rect x="679.226" y="120.70000000000002" width="99.70400000000001" height="17.6" fill="#fff" opacity="0"></rect>,<rect x="679.226" y="126.20000000000002" width="6" height="6" fill="#34983f"></rect>,<text font-size="12.60" x="690.2" y="133.3"><tspan x="690.226" y="133.28">Desktop/Laptop</tspan></text></g><g class="legendMark"><rect x="679.226" y="138.3" width="155.774" height="17.6" fill="#fff" opacity="0"></rect>,<rect x="679.226" y="143.8" width="6" height="6" fill="#3360a9"></rect>,<text font-size="12.60" x="690.2" y="150.9"><tspan x="690.226" y="150.88">Other Connected Devices</tspan></text></g></g></g><g class="SourcesFooter" style="fill:#777"><g class="clickable" style="fill:#777"><text font-size="12.60" x="15.0" y="581.6"><tspan x="15" y="581.58">Source: BOND Internet Trends (2019)</tspan></text></g><text font-size="12.60" x="796.4" y="581.6"><tspan x="796.444" y="581.58"><a style="fill: #777;" class="cclogo" href="http://creativecommons.org/licenses/by/4.0/deed.en_US" target="_blank">CC BY</a></tspan></text></g></svg>