<?xml version="1.0" encoding="UTF-8" standalone="no"?>
<!-- Created with Inkscape (http://www.inkscape.org/) -->

<svg
   width="136.74139mm"
   height="156.01579mm"
   viewBox="0 0 136.74139 156.01579"
   version="1.1"
   id="svg1"
   xml:space="preserve"
   inkscape:version="1.3 (0e150ed6c4, 2023-07-21)"
   sodipodi:docname="Inca_Empire_South_Americav2.svg"
   xmlns:inkscape="http://www.inkscape.org/namespaces/inkscape"
   xmlns:sodipodi="http://sodipodi.sourceforge.net/DTD/sodipodi-0.dtd"
   xmlns="http://www.w3.org/2000/svg"
   xmlns:svg="http://www.w3.org/2000/svg"><sodipodi:namedview
     id="namedview1"
     pagecolor="#ffffff"
     bordercolor="#000000"
     borderopacity="0.25"
     inkscape:showpageshadow="2"
     inkscape:pageopacity="0.0"
     inkscape:pagecheckerboard="0"
     inkscape:deskcolor="#d1d1d1"
     inkscape:document-units="mm"
     inkscape:zoom="1"
     inkscape:cx="595"
     inkscape:cy="253.5"
     inkscape:window-width="3440"
     inkscape:window-height="1377"
     inkscape:window-x="-8"
     inkscape:window-y="-8"
     inkscape:window-maximized="1"
     inkscape:current-layer="layer1" /><defs
     id="defs1"><rect
       x="137.88582"
       y="458.2052"
       width="116.67262"
       height="20.506098"
       id="rect70" /><clipPath
       clipPathUnits="userSpaceOnUse"
       id="clipPath68"><path
         id="path69"
         style="fill:#ff0000;fill-opacity:1;fill-rule:nonzero;stroke:none"
         d="m 212.75297,176.00089 v 81.23633 h 197.24609 v -14.57813 c -2.05866,-0.5115 -3.98807,-2.459 -4.79492,-5.92187 -0.076,0.4889 -0.15427,0.9775 -0.22656,1.4668 -0.0484,0.55672 0.0229,1.11847 0.0879,1.67187 1.36558,11.65293 -10.48435,12.99193 -11.79492,1.39063 -1.03864,0.26473 -2.16099,0.13248 -3.23633,-0.37696 -1.40108,1.25144 -3.04498,1.64408 -4.54102,1.29883 -0.97176,0.80626 -2.21735,1.15844 -3.5371,1 0.5022,6.61907 -6.34095,9.04962 -10.82227,2.6211 -0.40911,4.85116 -6.51928,6.93591 -11.92383,0.65429 -0.29994,-0.34858 -0.60974,-0.68851 -0.90039,-1.04492 -0.90705,-1.11326 -1.32819,-1.73569 -2.19336,-2.93164 -2.85642,-4.14598 -5.61997,-8.35557 -8.27539,-12.63281 -0.17929,0.15309 -0.40211,0.24251 -0.74609,0.11914 -0.41413,-0.14861 -0.47015,-0.72638 -0.54688,-1.0586 -0.006,-0.0403 8e-4,-0.0807 -0.006,-0.12109 -0.1788,0.12938 -0.37132,0.25389 -0.59765,0.37695 -0.27122,0.14778 -0.54782,0.32902 -0.85547,0.35547 -0.68946,0.0563 -0.97169,-0.1916 -1.17578,-0.75781 -0.0559,-0.15523 -0.0338,-0.32816 -0.0527,-0.49219 -4.9e-4,-0.19022 -0.01,-0.3802 -0.002,-0.57031 0.0292,-0.68329 0.13733,-1.35969 0.29883,-2.02344 -0.2796,-0.22013 -0.56532,-0.43191 -0.84766,-0.64844 -0.9651,-0.85799 -1.96099,-1.68198 -2.89453,-2.57421 -1.79134,-1.71236 -3.58284,-3.64842 -5.05274,-5.6504 -1.19463,-1.62708 -2.48884,-3.66089 -3.05664,-5.64257 -0.23962,-0.83656 -0.23042,-1.72537 -0.3457,-2.58789 0.19117,-0.77299 0.22083,-1.60471 0.57422,-2.31836 0.81347,-1.64326 2.31442,-2.68133 3.99219,-3.29883 0.4857,-0.17878 0.98781,-0.31231 1.49218,-0.4336 0.49712,-2.30894 2.25338,-3.80805 4.49805,-3.88671 2.00574,-0.0703 4.38924,0.99285 6.58399,3.59961 0.33224,0.0233 0.62513,0.0449 0.9707,0.0664 2.20278,0.27523 4.41114,0.50107 6.60742,0.82422 0.7403,0.10896 1.54226,0.26077 2.30469,0.38477 0.9821,-1.77376 2.56462,-2.65685 4.24414,-2.58985 0.71537,0.0285 1.44775,0.23005 2.15625,0.60352 0.55645,-0.45833 1.1794,-0.80761 1.875,-0.96289 0.009,-4.4762 2.47202,-7.0541 5.22656,-7.07813 2.61192,-0.0228 5.44931,2.2209 6.59961,7.23633 0.16589,0.72332 0.32475,1.44799 0.48828,2.17188 0.23437,-4.23981 2.58262,-6.59543 5.17774,-6.68946 1.93555,-0.0701 3.97261,1.13212 5.33789,3.67188 1.11958,1.2532 2.03501,3.09831 2.50976,5.58593 0.30463,1.59614 0.55899,3.20259 0.77149,4.81446 0.34781,0.0736 0.69559,0.14728 1.04297,0.22265 0.99416,-1.74343 2.56504,-2.66638 4.24218,-2.58203 1.02959,0.0518 2.09406,0.49294 3.0879,1.33985 0.63368,-2.85068 2.54857,-4.49654 4.70312,-4.59961 1.17241,-0.0561 2.41274,0.34658 3.55273,1.25195 V 176.00089 Z M 350.0811,203.5048 c 2.17938,2.97131 4.48012,5.85074 6.88281,8.64453 0.64821,0.75368 1.30852,1.49731 1.96484,2.24414 -0.31347,-1.40344 -0.59663,-2.81196 -0.79687,-4.23633 -0.31522,-2.24208 -0.14067,-4.08141 0.35351,-5.51758 -0.66025,-0.106 -1.3586,-0.23933 -2.00195,-0.33398 -2.12776,-0.31304 -4.26792,-0.53658 -6.40234,-0.80078 z m -12.2129,0.29297 c -0.36052,0.099 -0.72315,0.19104 -1.07226,0.32226 -1.43131,0.5379 -2.68642,1.43054 -3.31836,2.86328 -0.25436,0.57638 -0.23837,1.23691 -0.35742,1.85547 0.12019,0.71785 0.14174,1.46034 0.36133,2.1543 0.57641,1.82067 1.76094,3.66326 2.875,5.16797 1.44366,1.95008 3.15575,3.79714 4.9082,5.46875 0.91385,0.87171 1.88952,1.67717 2.83398,2.51562 0.13864,0.10613 0.27785,0.21157 0.41602,0.31836 0.007,-0.0208 0.0142,-0.0417 0.0215,-0.0625 -0.38008,-0.63558 -0.76193,-1.27013 -1.13476,-1.91015 -1.10835,-1.90265 -2.25388,-3.94987 -3.29102,-5.89844 -0.51023,-0.95856 -1.45566,-2.77886 -1.93555,-3.875 -0.17525,-0.3998 -0.31662,-0.8138 -0.4746,-1.22071 h -0.002 c -1.06401,-2.74113 -1.19439,-3.65435 -0.71484,-3.65039 0.48041,0.004 1.58021,0.92956 2.96289,1.86329 -1.45926,-2.16912 -2.09832,-4.20083 -2.07813,-5.91211 z m 55.65235,7.72851 c 0.0404,0.3467 0.0791,0.69385 0.11523,1.04102 0.0728,-0.33793 0.16037,-0.65963 0.26953,-0.95899 -0.12815,-0.0278 -0.25646,-0.0549 -0.38476,-0.082 z m -47.79102,15.64844 c -0.001,0.048 0.007,0.0814 0.0332,0.0859 -0.0136,-0.0356 -0.0231,-0.058 -0.0332,-0.0859 z m -0.66015,0.83594 c -0.002,0.0872 -0.0225,0.17 -0.0215,0.25781 0.0159,0.12019 0.002,0.24756 0.0449,0.36133 0.0106,0.0283 0.0693,-0.0303 0.0664,-0.0606 -0.008,-0.0828 -0.13512,-0.15828 -0.0937,-0.23047 0.0707,-0.12434 0.24108,-0.1562 0.35938,-0.23633 0.0849,-0.0577 0.0552,-0.0452 0.12109,-0.0898 -0.15689,0.0677 -0.30352,0.0683 -0.47656,-0.002 z m 1.96679,1.04492 c -0.0143,0.006 -0.0286,0.0133 -0.043,0.0195 -0.0113,0.004 0.0216,0.0309 0.0254,0.0195 0.007,-0.0125 0.0113,-0.0263 0.0176,-0.0391 z" /></clipPath><rect
       x="137.88582"
       y="458.2052"
       width="116.67262"
       height="20.506098"
       id="rect70-8" /><rect
       x="137.88582"
       y="458.2052"
       width="116.67262"
       height="20.506098"
       id="rect70-8-8" /><rect
       x="137.88582"
       y="458.2052"
       width="116.67262"
       height="20.506098"
       id="rect70-8-0" /></defs><g
     inkscape:label="Layer 1"
     inkscape:groupmode="layer"
     id="layer1"
     transform="translate(-2.4711658,-0.00131525)"><g
       id="g1"
       transform="matrix(0.26458333,0,0,0.26458333,2.3510097,0.00131525)"
       inkscape:label="Generic Lines"><path
         d="M 183.75,89.08 182,90.099 v 1.251 1.251 l -1.25,2.675 -1.25,2.674 -5.5,2.532 -5.5,2.532 2.5,-0.618 2.5,-0.618 3.284,-1.519 3.285,-1.519 1.959,-4.301 1.959,-4.3 2.062,-0.655 2.062,-0.654 2.045,1.358 2.046,1.358 1.493,3.977 1.494,3.977 0.509,2.683 0.509,2.683 1.397,0.535 1.396,0.536 V 104.969 104 h -1 -1 v -1.966 -1.966 l -1.708,-3.784 -1.708,-3.784 -1.966,-2.25 -1.967,-2.25 -2.075,0.03 -2.076,0.031 -1.75,1.019 m 14.907,20.67 0.48,2.75 0.009,2.5 0.008,2.5 2.267,2.5 2.267,2.5 4.705,8.832 4.706,8.831 -0.447,6.983 -0.448,6.983 -0.602,0.602 -0.602,0.602 v 1.893 1.892 l 0.863,-0.534 0.864,-0.533 0.55,6.07 0.551,6.07 2.086,1.943 2.086,1.944 v -0.989 -0.99 l -1.519,-0.85 -1.519,-0.85 -0.626,-6.699 -0.625,-6.7 h -0.978 -0.978 l 0.93,-1.25 0.93,-1.25 0.234,-7.739 0.233,-7.739 -1.191,-2.261 -1.19,-2.261 -0.628,-0.5 -0.628,-0.5 -1.973,-4.5 -1.972,-4.5 -3.159,-3.52 -3.158,-3.52 -0.092,-2.73 L 200,112 l -0.106,-2.5 -0.106,-2.5 h -0.806 -0.806 l 0.481,2.75 m 15.377,68.427 -2.027,3.323 -0.003,6.416 -0.004,6.416 1.75,1.921 1.75,1.92 4.156,4.164 4.156,4.163 1.491,3.001 1.491,3.001 6.098,3.999 6.098,3.999 0.005,0.75 L 239,222 h -2.333 -2.334 l -0.664,0.665 -0.665,0.664 -8.252,0.232 -8.252,0.231 -5.758,-0.941 -5.757,-0.942 -1.743,1.003 -1.742,1.004 3,-0.005 3,-0.005 13.272,0.415 13.273,0.415 0.536,-0.868 0.537,-0.868 h 2.786 2.786 l 1.655,1.829 1.655,1.828 v 1.221 1.221 l -1.446,2.796 -1.445,2.795 1.513,5.793 1.512,5.792 1.537,2.346 1.537,2.345 -1.104,3.166 -1.104,3.166 0.079,3.101 0.079,3.101 0.308,-1 0.309,-1 1.25,-5.659 1.251,-5.659 -2.23,-3.608 -2.23,-3.608 -0.034,-5.233 -0.033,-5.233 0.739,-3.25 0.739,-3.25 h 0.911 0.912 l 1.022,2.689 1.022,2.689 1.996,1.397 1.996,1.398 1.643,4.106 1.642,4.107 0.373,-1.118 0.373,-1.119 -2.104,-4.123 -2.103,-4.123 -1.385,-0.532 -1.385,-0.531 -1.018,-2.92 -1.018,-2.92 -1.802,-0.033 -1.802,-0.034 -2.25,-1.877 -2.25,-1.877 -0.005,-0.839 -0.005,-0.84 -6.098,-3.999 -6.098,-3.999 -1.491,-3.001 -1.491,-3.001 -4.156,-4.163 -4.156,-4.164 -1.75,-1.92 -1.75,-1.921 v -4.698 -4.698 l 1.398,-3.346 1.398,-3.346 1.142,-0.706 1.142,-0.706 -0.617,2.461 -0.618,2.461 3.077,3.505 3.078,3.505 v 0.718 0.719 l 4.5,4.564 4.5,4.565 v 0.752 0.753 l 4.5,1.718 4.5,1.719 0.002,1.114 0.002,1.114 4.317,2.727 4.317,2.727 1.217,2.276 1.218,2.276 3.214,1.972 3.213,1.973 1,0.421 1,0.42 -1.882,-2.12 -1.882,-2.121 -1.708,-0.542 -1.708,-0.542 -1.311,-2.451 -1.312,-2.451 -4.099,-2.697 -4.098,-2.698 -1.307,-1.835 -1.306,-1.835 h -1.993 -1.992 l -5.951,-5.969 -5.951,-5.97 v -1.35 -1.35 l -2.5,-2.174 -2.5,-2.174 -0.148,-1.256 -0.148,-1.257 -0.102,-1.912 -0.102,-1.911 -1.22,-0.412 -1.22,-0.412 -2.026,3.324 M 260,221.444 v 0.581 l 5.548,3.549 5.548,3.549 0.846,2.189 0.846,2.188 2.606,2.424 2.606,2.425 v 1.278 1.279 l 1.152,2.528 1.152,2.528 1.598,0.54 1.598,0.54 5.384,4.979 5.383,4.979 -1.383,0.118 -1.384,0.119 -1,-0.276 -1,-0.276 -5,-0.74 -5,-0.741 -4,-0.682 -4,-0.681 -2,-0.837 -2,-0.837 -2.25,-0.49 -2.25,-0.49 v 0.814 0.813 l 5.25,1.535 5.25,1.534 2.695,0.564 2.694,0.563 5.306,0.685 5.305,0.684 2.5,-0.145 2.5,-0.144 2,-0.295 2,-0.295 0.307,3.698 0.308,3.698 -1.808,2.785 -1.807,2.786 -1.693,1.709 -1.692,1.709 -1.122,4.308 -1.122,4.307 -0.936,3.071 -0.935,3.071 0.036,2.929 0.036,2.929 2.459,3 2.459,3 0.005,-1.115 0.005,-1.115 -2.105,-2.676 -2.104,-2.676 0.482,-3.209 0.483,-3.209 1.455,-5.17 1.455,-5.171 1.917,-2.72 1.917,-2.72 1,-1.609 1,-1.61 0.811,-0.597 0.811,-0.596 -0.311,-4.899 -0.311,-4.898 -2.691,-0.505 -2.691,-0.505 -5.228,-4.5 -5.229,-4.5 -1.805,-1.725 -1.805,-1.724 -0.654,-2.604 -0.653,-2.604 -2.872,-3.144 -2.872,-3.145 -0.007,-1.027 -0.007,-1.027 -3.743,-2.456 -3.743,-2.457 -2.75,-1.861 -2.75,-1.862 v 0.58 m 32.123,81.056 -0.035,2 1.241,4.702 1.241,4.701 0.715,0.715 0.715,0.715 v 3.819 3.819 l 1.126,4.265 1.125,4.264 -2.731,6.5 -2.731,6.5 -0.751,10.5 -0.75,10.5 -2.122,4.5 -2.122,4.5 -0.022,4.732 -0.022,4.733 -4.484,4.68 -4.484,4.68 -0.549,1.729 -0.549,1.73 -1.717,0.664 -1.717,0.664 -4.5,2.403 -4.5,2.403 1.378,0.041 1.379,0.041 5.371,-3.073 5.372,-3.074 v -0.868 -0.869 l 5,-5.713 5,-5.714 0.022,-4.095 0.022,-4.094 2.126,-4.5 2.127,-4.5 0.739,-11 0.739,-11 2.315,-4.5 2.314,-4.5 -0.113,-4.5 -0.114,-4.5 -0.961,-6 -0.962,-6 -1.654,-6 -1.653,-6 -0.395,-1 -0.394,-1 -0.035,2"
         stroke="none"
         fill="#000000"
         fill-rule="evenodd"
         id="path5"
         style="display:inline;opacity:1"
         sodipodi:nodetypes="ccccccccccccccccccccccccccccccccccccccccccccccccccccccccccccccccccccccccccccccccccccccccccccccccccccccccccccccccccccccccccccccccccccccccccccccccccccccccccccccccccccccccccccccccccccccccccccccccccccccccccccccccccccccccccccccccccccccccccccccccccccccccccccccccccccccccccccccccccccccccccccccccccccccccccccccccccccccccccccccccccccccccccccccccccccccccccccccccccccccccc"
         inkscape:label="Suyu_Lines" /><path
         d="m 120.104,2.369 2.396,2.369 3.306,4.131 3.307,4.131 h 0.979 0.978 L 130.035,11.066 129,9.131 V 6.566 4 h 1.423 1.423 l 3.077,3.077 3.077,3.077 v 1.356 1.355 l 2,0.635 2,0.635 V 15.067 16 h 1.5 1.5 l 0.083,-0.75 0.084,-0.75 0.409,-2 0.409,-2 0.618,-3.759 0.618,-3.76 0.889,-0.549 0.89,-0.55 V 0.941 0 h -15.646 -15.646 l 2.396,2.369 M 250,1 v 1 h 1.059 1.059 L 251.5,1 250.882,0 H 250.441 250 v 1 m -13.5,1.203 -2,1.143 -1.307,1.827 L 231.887,7 h -1.036 -1.036 l -2.542,2 -2.543,2 h -3.396 -3.397 l -0.518,1.352 -0.519,1.352 -2.2,-0.363 -2.2,-0.363 -2.671,2.395 -2.671,2.395 -1.041,3.772 -1.042,3.772 0.522,0.844 0.521,0.844 h -1.02 -1.021 l -4.038,4.079 -4.039,4.079 -0.032,1.171 -0.032,1.171 -1.563,-2 -1.563,-2 0.647,4.038 0.647,4.039 -3.073,2.738 -3.073,2.738 1.218,2.223 1.217,2.224 0.168,9 0.168,9 -0.944,1.833 -0.944,1.833 1.717,1.898 1.718,1.898 -1.388,1.769 -1.388,1.769 -0.52,0.5 -0.521,0.5 -1.234,2.806 -1.234,2.807 -0.832,-0.515 -0.833,-0.515 -2.163,1.515 -2.163,1.515 v 1.583 1.584 l -1.748,1.278 -1.749,1.278 0.797,0.797 0.796,0.796 1.702,-1.072 1.702,-1.071 0.334,-1.893 0.335,-1.893 1.606,-1.25 1.607,-1.25 h 2.135 2.134 l 1.967,2.25 1.966,2.25 1.708,3.784 1.708,3.784 v 1.537 1.538 l 1.355,1.355 1.355,1.355 3.395,2.07 3.395,2.07 1.576,0.003 1.575,0.004 2.175,2.314 2.174,2.315 v 1.685 1.686 h 0.989 0.988 l 2.012,1.722 2.011,1.722 v 1.123 1.123 l 2,1.81 2,1.81 v 1.345 1.345 h 3.441 3.441 l 0.587,-0.951 0.588,-0.95 4.221,0.274 4.222,0.274 2.75,1.152 2.75,1.151 v 1.968 1.968 l -2.099,3.557 -2.099,3.557 h 1.899 1.899 l 1.065,1.065 1.065,1.065 0.683,-7.815 0.683,-7.815 0.91,-4 0.91,-4 -1.147,-3.854 -1.148,-3.854 -1.31,-0.503 L 246,111.786 V 108 104.214 l 1.582,-0.607 1.582,-0.607 h 1.886 1.887 l -0.61,-1.59 -0.61,-1.589 -2.358,0.451 -2.359,0.451 V 97.361 94 h 5.941 5.941 l 0.66,-1.068 0.66,-1.068 1.367,0.524 1.367,0.525 0.591,-0.957 0.591,-0.956 h 1.941 1.941 v -0.927 -0.928 l -2.5,-1.966 -2.5,-1.967 v -1.097 -1.098 l 2,-1.249 2,-1.249 V 79.259 78 h -0.902 -0.902 l -1.098,-3.149 -1.098,-3.149 0.033,-2.601 0.032,-2.601 1.814,-5.25 1.814,-5.25 -1.097,-0.118 -1.096,-0.119 -0.5,0.021 -0.5,0.021 -6.18,0.607 -6.179,0.608 -0.6,-1.891 -0.6,-1.891 -1.838,-2.119 L 246.265,49 H 239.633 233 l -2.099,-2.099 -2.099,-2.099 0.511,-3.151 0.51,-3.151 -2.051,-4.665 -2.052,-4.665 -1.379,0.529 -1.379,0.53 1.516,-2.865 1.516,-2.864 1.047,-4.271 1.047,-4.271 4.063,-4.39 4.063,-4.391 1.893,-0.495 L 240,6.187 v 0.439 0.438 l -2.25,0.905 -2.25,0.904 1.679,0.064 L 238.857,9 240.429,7.429 242,5.857 V 4.036 2.214 L 240.418,1.607 238.836,1 l -0.168,0.03 -0.168,0.031 -2,1.142 M 257,3.238 v 1.548 l 1.643,0.631 1.643,0.63 0.363,-0.363 0.363,-0.363 L 259.006,3.506 257,1.69 v 1.548 m 5.015,-0.488 0.016,0.75 0.859,1.357 0.86,1.357 0.684,-1.107 L 265.118,4 264.5,3 263.882,2 H 262.941 262 l 0.015,0.75 m -13.659,1.765 -0.581,1.515 0.496,1.9 0.497,1.9 -5.134,2.28 -5.134,2.279 -0.781,0.399 -0.782,0.4 0.188,-0.844 0.187,-0.844 -1.105,-2.5 -1.105,-2.5 -0.659,2.217 -0.659,2.217 -1.784,0.566 -1.785,0.567 -1.055,2.716 -1.056,2.717 -0.971,3.75 -0.972,3.75 1.632,4.25 1.632,4.25 0.86,0.604 0.86,0.604 -0.662,3.53 -0.662,3.53 1.812,2.116 1.811,2.116 h 7.094 7.094 l 2.229,3.966 2.229,3.966 2.705,-0.419 2.705,-0.419 4,-0.515 4,-0.516 1.408,0.875 1.408,0.876 -1.571,3.343 -1.572,3.343 -0.66,4.5 -0.66,4.5 1.071,2.5 1.071,2.5 1.253,1.792 1.252,1.792 -2.495,1.897 -2.496,1.898 2.626,2.81 2.626,2.811 1.34,5.372 1.34,5.372 2.279,1.038 2.28,1.039 2.5,-1.139 2.5,-1.139 v 1.433 1.433 l 2.514,-2.204 2.514,-2.205 3.736,-3.256 3.736,-3.256 2,-1.462 2,-1.462 -2.636,-0.032 L 292.227,89 291.521,84.29 290.814,79.58 288.907,77.155 287,74.73 v -1.432 -1.433 l 2.25,0.68 2.25,0.68 0.95,0.887 0.95,0.888 h 2.678 2.677 l 1.355,1.633 1.355,1.632 0.559,-2.382 0.558,-2.383 2.459,-0.308 2.459,-0.309 5.207,-2.108 5.206,-2.107 0.513,-1.335 0.512,-1.334 -3.113,-3.546 -3.113,-3.546 1.262,-2.358 1.262,-2.358 -0.69,-1.117 -0.69,-1.116 3.704,-1.547 3.703,-1.548 -1.131,-1.131 L 319,46.6 v -2.171 -2.171 l 3.436,-2.354 3.435,-2.354 -1.185,-1.525 -1.186,-1.525 1.783,1.4 1.784,1.4 -2.208,2.35 -2.208,2.35 H 321.326 320 v 2.5 2.5 h 1 1 v 1.422 1.423 l -3.446,1.137 -3.445,1.137 0.522,1.363 0.523,1.362 -1.163,2.172 -1.162,2.173 2.26,2.405 2.26,2.406 h 2.95 2.951 l -0.6,3 -0.6,3 h 1.396 1.395 l 0.668,3.041 0.668,3.041 -1.024,1.234 -1.024,1.234 -0.568,4.975 -0.568,4.975 1.753,3.465 1.754,3.465 2.632,1.474 2.633,1.474 1.689,-1.689 1.689,-1.689 1.678,-0.022 1.679,-0.022 2.438,-1.875 2.439,-1.874 1.311,0.504 L 347,92.214 346.965,91.357 346.929,90.5 345.5,88 344.071,85.5 344.035,83.25 344,81 h -1.14 -1.14 l -1.328,-1.75 -1.328,-1.75 -0.032,-5.282 -0.032,-5.282 2.16,-0.799 2.16,-0.799 1.25,-4.919 1.25,-4.919 -3.16,-2.714 -3.16,-2.714 -1.765,-0.608 -1.764,-0.608 0.61,-0.987 0.61,-0.986 -2.677,-3.863 -2.676,-3.862 -3.978,-2.632 -3.977,-2.632 -1.692,0.168 -1.691,0.168 -1.285,-0.115 -1.285,-0.115 0.983,-1.838 0.984,-1.839 -0.541,-2.069 -0.541,-2.069 -2.157,-0.741 -2.158,-0.741 -2,-0.752 -2,-0.752 3.191,-0.099 3.191,-0.1 0.441,-0.75 0.442,-0.75 0.713,-3.326 0.714,-3.325 -2.846,0.325 -2.846,0.326 0.247,2.3 0.247,2.299 -3.247,1.368 -3.247,1.369 -0.866,-1.537 -0.867,-1.537 1.367,-0.866 1.366,-0.865 1.191,-0.016 1.191,-0.015 0.677,-1.095 0.677,-1.095 -6.868,0.206 -6.868,0.206 -1.156,-0.111 -1.157,-0.111 0.491,-1.877 0.491,-1.878 -2.584,0.494 -2.585,0.494 v 0.523 0.524 l 1.75,1.328 1.75,1.328 -1.809,0.032 -1.809,0.032 0.592,0.957 0.591,0.958 -2.782,1.398 -2.783,1.399 -2.857,-0.798 -2.858,-0.799 -1.855,-1.678 -1.855,-1.679 -7.537,0.706 -7.538,0.707 v -3.06 -3.06 L 260.05,10.526 257.099,9 h -1.952 -1.951 L 252.15,6 251.104,3 h -1.083 -1.084 l -0.581,1.515 M 313,4.5 V 6 h 0.393 0.393 L 314.362,4.5 314.937,3 H 313.969 313 v 1.5 m 6.5,7.5 -0.618,1 h 1 1 l 0.618,-1 0.618,-1 h -1 -1 l -0.618,1 m -189.471,1.956 -1.471,0.935 0.686,0.686 0.686,0.686 -1.021,1.906 -1.02,1.907 0.572,1.802 0.572,1.802 2.449,1.311 2.45,1.31 1.534,-1.273 1.534,-1.273 v 1.525 1.524 l 3.75,1.951 3.75,1.95 v 2.775 2.774 l 2.173,0.812 2.174,0.813 0.968,-2.779 0.969,-2.779 -0.506,-2.648 -0.506,-2.648 1.642,-0.631 1.643,-0.63 -2.543,-3.334 -2.543,-3.335 -0.922,-2.297 -0.922,-2.298 -0.064,1.25 L 146,17 h -1.8 -1.8 l -1.092,-1.092 -1.092,-1.092 -2.858,-0.266 -2.858,-0.266 -1.5,-0.631 -1.5,-0.632 -1.471,0.935 M 284.5,15 l 0.618,1 h 0.441 0.441 v -1 -1 h -1.059 -1.059 l 0.618,1 m -48.82,6.624 -1.82,2.438 1.32,2.992 1.32,2.993 1.387,-0.274 1.387,-0.273 0.751,-2.033 0.75,-2.034 -1.637,-3.124 -1.638,-3.123 -1.82,2.438 m -61.14,5.311 -0.578,0.936 -5.635,2.58 -5.636,2.58 -1.701,-1.54 -1.701,-1.539 -1.818,0.697 -1.818,0.698 0.63,-1.641 0.63,-1.642 -0.966,-0.597 -0.965,-0.596 -2.076,0.659 -2.075,0.659 0.517,2.155 0.517,2.156 -1.327,3.784 -1.326,3.785 1.381,-1.146 1.381,-1.146 2.538,0.637 2.539,0.637 3.974,3.974 L 165,47 h 1.809 1.809 l 1.941,-1.426 1.941,-1.426 -1.807,-3.074 L 168.887,38 h 1.527 1.526 l 2.218,-3 2.218,-3 h 1.623 1.624 l 2.188,2.039 2.189,2.039 0.115,1.211 0.115,1.211 -0.171,1.711 -0.171,1.71 1.091,2.04 1.091,2.039 h 0.898 0.897 l 0.677,-2.132 0.677,-2.132 0.729,1.179 0.729,1.18 1.191,-1.436 1.191,-1.435 -0.637,-3.989 -0.638,-3.989 -2.388,-2.575 -2.388,-2.575 -3.754,-1.042 L 179.5,26.011 177.309,26.006 175.118,26 174.54,26.935 M 180,37 v 1 h 1 1 v -1 -1 h -1 -1 v 1 m -22.403,6.844 -0.63,1.018 1.083,0.669 1.083,0.669 0.617,-0.617 0.617,-0.616 -1.071,-1.071 -1.07,-1.07 -0.629,1.018 M 345.951,59.091 345,60.869 v 2.546 2.547 l -2.5,0.627 -2.5,0.628 v 4.786 4.787 l 2.483,2.355 2.482,2.355 0.018,1.349 0.017,1.349 1.548,3.262 1.548,3.263 2.581,1.176 2.581,1.176 0.514,-0.513 0.513,-0.514 -1.255,-1.512 -1.255,-1.512 1.362,-0.424 1.363,-0.424 3.392,-1.085 3.391,-1.086 1.25,1.71 1.251,1.71 1.473,-1.224 1.474,-1.223 0.588,-4.286 0.587,-4.286 -1.5,-4.352 -1.499,-4.353 0.641,-2.918 0.641,-2.918 1.405,-0.54 1.406,-0.539 v -2.314 -2.313 l -2.75,-0.566 -2.75,-0.567 -8.299,0.144 -8.298,0.144 -0.952,1.777 M 370,60.485 v 1.7 l -2.069,2.63 -2.07,2.631 0.652,3.476 0.652,3.476 1.263,1.802 1.262,1.803 -1.13,4.45 -1.13,4.45 -0.715,0.715 L 366,88.333 V 89.167 90 h 2 2 v -0.919 -0.92 l 3.62,1 3.62,0.999 0.819,-0.83 0.82,-0.83 4.06,-8.126 L 387,72.248 V 70.624 69 h -0.871 -0.87 l -3.801,-3.916 -3.801,-3.916 -2.078,-0.456 -2.079,-0.455 -1.75,-0.735 -1.75,-0.736 v 1.699 m -50.882,5.265 0.119,0.75 -0.119,1.221 -0.118,1.22 -5.346,2.53 L 308.307,74 H 305.654 303 v 2.5 2.5 h -0.878 -0.877 L 300,77.5 298.755,76 h -2.263 -2.263 l -2.819,-1.462 -2.819,-1.463 -0.474,0.475 -0.475,0.475 2.056,2.781 2.056,2.781 0.701,4.147 0.701,4.147 2.094,0.31 2.093,0.309 0.338,1.029 0.338,1.028 -2.949,1.742 -2.948,1.742 -0.597,1.88 -0.597,1.88 -2.549,0.64 -2.549,0.64 -2.556,2.709 -2.555,2.71 -0.43,-1.211 -0.43,-1.211 -2.747,0.55 -2.748,0.549 L 271.182,100.5 268,97.822 V 95.38 92.937 l -1.645,-0.631 -1.644,-0.631 -1.106,1.413 -1.105,1.412 -1.75,0.083 -1.75,0.084 -5.5,0.166 L 248,95 v 2 2 h 1.965 1.965 l 1.035,1.934 1.035,1.935 v 0.502 0.502 l -3.25,0.314 -3.25,0.313 -0.325,2.838 -0.325,2.839 1.449,1.661 1.448,1.662 1.198,3.73 1.197,3.731 -0.507,0.821 -0.508,0.821 -1.096,8.949 -1.095,8.948 -0.528,3.328 -0.528,3.328 -3.837,-0.649 -3.838,-0.648 -0.591,0.957 -0.592,0.957 -3.608,0.677 -3.608,0.677 -3.316,3.316 -3.316,3.316 -0.698,5.589 -0.698,5.588 -1.889,0.599 -1.889,0.6 v 2.232 2.233 l -1.2,1.2 -1.2,1.2 h 1.2 1.2 v 1.52 1.52 l 2.459,3.896 2.46,3.896 0.997,0.616 0.997,0.616 -0.565,1.471 -0.565,1.472 3.187,0.637 3.186,0.637 0.897,2.36 0.897,2.359 h 1.99 1.99 l 3.417,-3 3.417,-3 h 0.401 0.4 l -0.404,7.149 -0.404,7.15 3.119,-0.624 3.119,-0.624 5.18,0.982 5.18,0.982 2.137,-2.007 2.137,-2.008 h 0.963 0.962 l 3.375,-3.083 3.375,-3.082 2.413,-0.918 2.413,-0.917 h 2.376 2.376 l 0.728,1.178 0.729,1.179 0.24,5.718 0.24,5.718 1.257,2.354 1.257,2.353 2.787,2.608 2.787,2.607 4.629,0.635 4.629,0.634 2.552,2.008 2.553,2.008 3.612,2 0.618,1 0.618,1 h 3.75 3.75 l 1.854,1.356 1.854,1.356 1.377,5.38 1.377,5.381 -1.025,0.342 -1.025,0.342 1.485,2.872 1.485,2.872 v 2.004 2.004 l 6.75,0.295 6.75,0.296 0.304,4.171 0.303,4.171 2.84,0.99 2.839,0.989 1.083,3.34 1.082,3.339 -1.3,6.224 -1.301,6.224 0.768,1.242 0.768,1.243 -1.03,1.241 -1.03,1.24 1.587,2.266 1.587,2.265 v 4.626 4.626 l 4.138,1.625 4.138,1.625 0.922,-0.57 0.923,-0.57 2.689,1.119 2.69,1.119 2.25,3.926 2.25,3.925 v 2.64 2.64 l 3.829,-0.647 3.828,-0.647 1.256,1.513 1.256,1.514 -0.688,6.426 -0.689,6.427 2.474,-0.473 2.474,-0.473 1.269,3.342 1.268,3.342 -0.004,3.915 -0.005,3.916 -1.884,1.285 -1.884,1.285 -4.25,3.166 -4.25,3.167 v 1.549 1.55 l -0.672,-0.672 -0.672,-0.672 -2.824,4.255 -2.823,4.256 -0.005,0.792 -0.004,0.792 -2,2.146 -2,2.147 v 0.812 0.811 h 0.941 0.941 l 0.618,-1 0.618,-1 h 1.265 1.265 l 3.871,3.894 3.871,3.894 1.118,-0.429 1.118,-0.43 1.842,2.036 1.842,2.035 h 1.268 1.269 l 2.826,2.33 2.827,2.33 1.845,0.675 1.845,0.675 0.49,1.873 0.49,1.873 2.538,1.157 2.539,1.157 -1.782,1.969 -1.782,1.969 1.137,2.496 1.137,2.496 h 0.932 0.933 l 2.089,-4.316 2.089,-4.315 v -1.498 -1.497 l 3.089,-2.937 3.089,-2.937 2.347,-4 2.347,-4 1.762,-6.371 1.761,-6.37 3.052,-3.053 3.053,-3.052 -0.234,-6.577 -0.234,-6.577 -0.394,-7.209 -0.393,-7.209 0.998,0.209 0.997,0.209 1.63,-2.647 1.63,-2.647 3.5,-2.853 3.5,-2.853 2.334,-1.311 2.334,-1.311 2.838,0.623 2.839,0.624 0.327,-2.186 0.328,-2.186 4.559,-1.785 4.559,-1.785 6.441,-0.341 6.441,-0.342 0.5,-2.42 0.5,-2.419 3,-1.658 3,-1.658 0.539,-4.611 0.539,-4.61 1.633,-1.812 1.633,-1.812 0.712,-3 0.713,-3 1.44,-1.661 1.44,-1.661 -0.688,-4.591 -0.689,-4.591 1.791,-2.732 1.79,-2.732 0.419,-6.016 0.418,-6.016 -0.024,-4.5 -0.025,-4.5 -0.303,-9.429 -0.302,-9.428 2.982,-1.65 2.982,-1.65 1.207,-2.421 1.207,-2.422 2.417,-5.5 2.416,-5.5 4.974,-5.088 4.974,-5.089 2.644,-5.411 2.645,-5.412 0.644,-6.187 0.644,-6.186 -1.519,-4.814 -1.518,-4.813 -0.698,-2.994 -0.698,-2.995 -1.042,-1.255 -1.042,-1.256 h -4.473 -4.473 l -3.155,-2.199 -3.154,-2.198 -6.5,-5.902 -6.5,-5.902 -3,-1.611 -3,-1.61 -8.5,-0.143 -8.5,-0.143 -5.5,-2.636 -5.5,-2.637 -1,1.329 -1,1.328 -1.482,-0.499 -1.482,-0.498 -1.098,-1.099 -1.099,-1.098 0.375,-1.125 0.375,-1.125 -1.544,-1.544 L 439,122.143 V 121.071 120 h -1 -1 v 1.057 1.056 L 434.777,120.557 432.555,119 H 430.777 429 v -0.892 -0.891 l -2.75,-0.777 -2.75,-0.777 -0.5,-0.168 -0.5,-0.168 -1.5,-0.641 -1.5,-0.642 -2,0.402 -2,0.401 -1.301,0.076 -1.301,0.077 -1.508,3.608 -1.507,3.608 -0.455,-0.454 -0.454,-0.455 1.513,-3.621 1.513,-3.622 v -1.52 -1.52 l -4.079,-0.653 -4.08,-0.652 -1.161,-1.859 -1.161,-1.86 h -1.376 -1.376 l 0.644,-2.75 0.644,-2.75 0.542,-3.161 0.542,-3.16 L 399.07,93.522 397,92.865 V 91.433 90 h -0.906 -0.906 L 393.594,85.322 392,80.644 v -2.6 -2.599 l -1.642,-2.345 -1.643,-2.345 -4.38,8.797 -4.38,8.797 -0.998,1.203 -0.999,1.203 -6.955,-0.139 -6.956,-0.14 -1.616,-1.616 -1.616,-1.616 -3.386,1.039 -3.386,1.039 0.587,2.339 0.587,2.339 -1.359,-0.044 -1.358,-0.043 -4.25,-0.822 -4.25,-0.822 v 0.783 0.783 l -4.5,1.718 -4.5,1.719 V 98.136 99 l -2.25,-0.032 -2.25,-0.031 -2.5,-2.227 -2.5,-2.227 -1.331,-3.785 -1.33,-3.785 0.694,-4.207 0.693,-4.206 0.93,-1.154 0.93,-1.155 -0.651,-2.595 L 324.783,71 h -1.471 -1.471 l 0.659,-3 0.659,-3 H 321.079 319 l 0.118,0.75 M 269,97 v 1.333 L 269.667,97.667 270.333,97 269.667,96.333 269,95.667 V 97 m -91,0.5 V 98 h 0.5 0.5 V 97.5 97 h -0.5 -0.5 v 0.5 m -4.493,2.489 -0.611,0.988 1.552,-0.595 L 176,99.786 V 99.393 99 h -0.941 -0.941 l -0.611,0.989 M 170,101.5 v 0.5 h 0.5 0.5 v -0.5 -0.5 h -0.5 -0.5 v 0.5 M 89,107 v 1.333 L 89.667,107.667 90.333,107 89.667,106.333 89,105.667 V 107 m 110.62,1.547 -0.613,1.598 0.993,1.855 0.993,1.855 -0.618,1.61 -0.618,1.609 1.788,1.975 1.787,1.975 1.469,-3.033 1.47,-3.034 -1.636,-1.807 -1.635,-1.807 v -1.049 -1.049 l -1.383,-1.148 -1.383,-1.148 -0.614,1.598 m -117.702,-0.297 -0.082,0.25 -0.469,2.877 -0.469,2.876 1.551,-0.595 1.551,-0.595 v 0.968 0.969 h -1 -1 v 1.441 1.441 l 1.009,0.624 1.009,0.623 2.051,-0.651 2.052,-0.651 -0.64,-2.913 -0.639,-2.912 1.516,0.582 1.516,0.582 -0.505,1.316 -0.505,1.316 1.155,0.714 1.155,0.714 1.143,-1.143 1.142,-1.142 -2.98,-2.438 -2.979,-2.438 -1.167,0.404 -1.167,0.405 -0.552,-1.437 L 84.063,108 H 83.031 82 l -0.082,0.25 m 314.415,1.417 0.667,0.666 0.667,-0.666 0.666,-0.667 H 397 395.667 l 0.666,0.667 m -190.782,3.389 1.86,2.056 -1.205,1.93 -1.206,1.931 v 1.491 1.492 l 2.75,5.772 2.75,5.772 0.6,0.5 0.601,0.5 1.19,2.261 1.191,2.261 -0.233,7.739 -0.234,7.739 -0.93,1.25 -0.93,1.25 h 0.978 0.978 l 0.618,6.62 0.618,6.621 1.777,1.312 1.776,1.312 0.326,-2.183 0.327,-2.182 1.785,-1.5 1.785,-1.5 1.151,-5.979 1.151,-5.979 2.593,-2.228 2.594,-2.229 3.644,-1.112 3.644,-1.112 2.173,-1.058 2.173,-1.058 2.55,0.64 2.551,0.64 -0.581,-1.513 -0.58,-1.512 H 243.393 241 l 0.004,-0.75 0.003,-0.75 1.997,-3.274 1.996,-3.274 v -1.86 -1.859 l -2.25,-0.709 -2.25,-0.709 -4.25,-0.361 -4.25,-0.36 v 0.953 0.953 h -3.878 -3.877 L 223,129.5 221.755,128 h 0.811 0.811 l -2.188,-2.039 -2.189,-2.039 v -1.245 -1.246 l -3,-1.772 -3,-1.772 v -1.789 -1.788 l -1.829,-1.655 -1.828,-1.655 h -2.827 -2.826 l 1.861,2.056 M 97.667,115.667 97,116.333 v 1.034 1.033 l 1.183,-1.183 1.184,-1.184 -0.517,-0.516 -0.517,-0.517 -0.666,0.667 M 90,121 v 1.333 L 90.667,121.667 91.333,121 90.667,120.333 90,119.667 V 121 m 315.333,3.667 0.667,0.666 0.667,-0.666 0.666,-0.667 H 406 404.667 l 0.666,0.667 m -187.3,53.649 -0.033,0.815 1.159,2.185 1.158,2.184 1.842,1.307 1.841,1.306 0.015,2.194 0.016,2.193 0.907,-1.435 0.908,-1.434 -1.966,-2.566 -1.966,-2.565 -1.924,-2.5 -1.923,-2.5 -0.034,0.816 m 10.167,14.571 1.218,1.613 3.293,3.25 3.294,3.25 h 1.941 1.941 l 1.306,1.835 1.307,1.835 4.098,2.698 4.099,2.697 1.228,2.218 1.228,2.217 3.423,2.204 3.424,2.204 -0.028,-1.204 -0.028,-1.204 -3.222,-6 -3.222,-6 h -4.5 -4.5 v -6.637 -6.638 l -3.285,2.888 -3.285,2.887 h -1.383 -1.383 l -1.582,-0.607 -1.582,-0.607 v -1.776 -1.777 l -2.509,-0.479 -2.508,-0.48 1.217,1.613 m 48.8,1.879 -1.5,0.544 -4.103,3.345 -4.103,3.345 h -0.992 -0.992 l -1.823,2.014 -1.822,2.014 -3.411,-0.64 -3.41,-0.64 3.078,6.098 3.078,6.097 v 2.408 2.408 l 6,3.823 6,3.822 v 1.075 1.075 l 2.872,3.145 2.872,3.144 0.653,2.604 0.654,2.604 1.805,1.724 1.805,1.725 5.229,4.5 5.228,4.5 2.691,0.505 2.691,0.505 0.311,4.898 0.311,4.899 -0.811,0.596 -0.811,0.597 -1,1.61 -1,1.609 -1.917,2.72 -1.917,2.72 -1.455,5.171 -1.455,5.17 -0.464,3.051 -0.464,3.051 2.336,3.657 2.336,3.656 2.316,0.043 2.315,0.042 1.935,1.035 1.934,1.035 0.039,1.715 0.039,1.715 1.413,-3.25 1.412,-3.25 h 4.465 4.465 l 0.45,1.25 0.45,1.25 0.739,-5.674 0.74,-5.675 -0.611,-0.987 -0.61,-0.987 1.673,-3.338 1.673,-3.339 0.69,-1.5 0.69,-1.5 7.891,-1.642 7.892,-1.642 2.5,0.538 2.5,0.538 2.645,1.847 2.646,1.848 0.674,-1.743 0.673,-1.744 0.896,-4.701 0.896,-4.702 -0.99,-2.839 -0.989,-2.838 -2.976,-1.123 -2.975,-1.123 v -4.041 -4.042 l -6.712,-0.295 -6.713,-0.296 -0.614,-3 -0.614,-3 -1.277,-2.377 -1.276,-2.377 1.069,-0.661 1.069,-0.661 -1.478,-4.91 -1.478,-4.911 -1.238,-0.786 -1.238,-0.786 -3.628,-0.016 L 313.245,227 312,225.5 310.755,224 305,221 v -1 h -1.941 -1.941 l -0.618,-1 -0.618,-1 h -3.472 -3.473 l -0.561,-1.462 -0.561,-1.462 -1.691,-0.537 -1.691,-0.536 -1.787,-3.025 -1.787,-3.025 -0.328,-6.227 -0.327,-6.226 -0.104,-0.5 -0.104,-0.5 -2.748,-0.139 -2.748,-0.14 -1.5,0.545 m 50.571,83.097 -7.93,1.647 -0.713,2.667 -0.713,2.666 -0.723,1.169 -0.722,1.17 -0.353,7.909 -0.353,7.909 h 0.752 0.753 l 1.756,2.974 1.757,2.974 5.209,3.413 5.209,3.413 2.5,0.736 2.5,0.736 5.5,3.168 5.5,3.169 3.988,1.958 3.988,1.959 0.335,1.75 0.336,1.75 -1.574,3.154 -1.573,3.153 v 2.347 2.346 h -1 -1 v 1.371 1.371 l 5.25,0.738 5.25,0.737 3.285,0.239 3.285,0.24 0.524,-0.848 0.524,-0.848 h 1.718 1.719 l 2.676,-3.05 2.677,-3.05 0.104,-6.7 0.105,-6.7 0.191,-4.5 0.192,-4.5 h -4.458 -4.458 l -0.84,-4.196 -0.84,-4.196 -2.96,-3.168 -2.96,-3.169 -2.076,0.543 -2.076,0.543 -4.416,-1.893 -4.416,-1.893 v -4.844 -4.845 l -1.468,-1.941 -1.468,-1.941 -0.032,-2.182 -0.032,-2.182 -2.75,-1.922 -2.75,-1.922 -2.5,-0.538 -2.5,-0.538 -7.929,1.647 m -21.278,22.935 -1.206,0.767 -1.426,3.39 -1.426,3.391 -0.69,-3.141 -0.69,-3.142 -3.474,-0.651 -3.474,-0.652 -0.559,0.559 -0.559,0.558 1.726,6.312 1.725,6.311 0.969,6 0.968,6 0.114,4.5 0.113,4.5 -2.314,4.5 -2.315,4.5 -0.739,11 -0.739,11 -2.127,4.5 -2.126,4.5 -0.022,4.094 -0.022,4.095 -5.038,5.757 -5.038,5.757 0.912,1.149 0.913,1.148 0.511,3.5 0.51,3.5 -0.866,5.455 -0.866,5.454 1.481,2.261 1.481,2.26 v 1.413 1.413 l -2.131,1.415 -2.131,1.415 1.718,5.91 1.718,5.909 1.913,2.433 1.913,2.432 v 1.396 1.397 l -1.25,0.479 -1.25,0.479 0.154,4.24 0.154,4.239 1.054,4.5 1.053,4.5 0.673,3 0.673,3 1.546,1.774 1.546,1.773 -1.028,1.028 -1.028,1.028 0.484,2.53 0.483,2.53 2.271,1.035 2.27,1.034 1.27,4.536 1.27,4.536 2.868,1.083 2.869,1.082 -0.26,2.016 -0.26,2.015 0.813,1.307 0.813,1.307 -0.567,2.258 -0.567,2.259 1.775,3.435 1.774,3.434 -0.138,3 -0.138,3 -0.785,1.787 -0.785,1.787 1.529,1.713 1.529,1.713 -0.166,3.056 -0.165,3.057 -1.635,2.495 -1.635,2.495 1.34,2.949 1.34,2.948 1.958,2.244 1.959,2.244 2.895,-0.579 2.895,-0.579 1.2,2.632 1.199,2.632 v 1.043 1.042 l 2.25,1.877 2.25,1.877 4.418,0.034 4.418,0.033 6.328,1.102 6.328,1.102 -0.466,0.754 -0.465,0.753 2.566,-0.491 2.567,-0.49 -2.847,-2.329 -2.847,-2.329 -0.75,-0.036 L 340,554 v -1.345 -1.345 l -2,-1.81 -2,-1.81 v -1.819 -1.82 l 3.084,-1.595 3.085,-1.595 -0.642,-4.68 -0.641,-4.681 4.117,-4.154 4.118,-4.153 -1.077,-0.666 -1.077,-0.665 0.524,-0.847 0.523,-0.847 -0.982,-2.584 L 346.05,515 h -3.328 -3.328 l -4.197,-3.087 -4.197,-3.086 -0.115,-1.164 -0.115,-1.163 0.196,-2 0.197,-2 1.308,-1.354 1.308,-1.353 3.36,-0.688 3.361,-0.687 -0.056,-3.459 -0.057,-3.459 -0.732,-3.063 -0.732,-3.062 2.491,-2.688 2.491,-2.687 h 1.547 1.548 v -2.378 -2.377 l -1.487,-1.234 -1.487,-1.234 -2.434,0.61 -2.433,0.611 -1.58,-0.606 -1.58,-0.606 -2.012,-4.548 -2.011,-4.547 0.447,-0.447 0.447,-0.448 4.996,1.659 4.995,1.66 3.967,-1.069 3.966,-1.068 0.62,-1.616 0.621,-1.615 -1.268,-1.529 -1.267,-1.528 -0.025,-5.345 -0.025,-5.345 4.525,-0.017 4.525,-0.017 7.132,-1.791 7.132,-1.79 2.618,-1.716 2.618,-1.715 v -1.517 -1.517 l 2.062,-4.041 2.061,-4.041 -0.641,-2.919 -0.641,-2.919 h -1.72 -1.721 l -1.2,-1.2 -1.2,-1.2 v -3.347 -3.346 l -3.208,-1.704 -3.208,-1.703 -2.711,-2.592 -2.711,-2.592 -1.14,-4.234 -1.14,-4.235 1.145,-1.38 1.145,-1.379 -0.68,-1.101 -0.681,-1.101 -0.48,-2.693 -0.48,-2.693 0.132,-7.443 0.132,-7.443 6.16,-9.898 6.161,-9.899 5.532,-3.596 5.532,-3.597 0.332,-0.227 0.332,-0.227 0.06,-3.835 0.061,-3.835 -1.146,-2.823 -1.145,-2.823 -1.747,0.333 -1.747,0.333 -0.28,2.49 -0.28,2.49 -0.445,2.076 -0.446,2.076 -3.009,3.148 -3.009,3.149 -1.386,-0.532 -1.387,-0.532 -0.622,1.621 -0.622,1.621 -1.189,-0.735 -1.189,-0.735 -2.568,-0.249 -2.568,-0.249 -5.25,-0.719 -5.25,-0.719 v -1.801 -1.802 l 1,-0.618 1,-0.618 v -1.827 -1.826 l 1.494,-2.865 1.494,-2.864 0.006,-1.763 0.006,-1.762 -5.548,-2.454 -5.549,-2.454 -2.8,-1.994 -2.801,-1.994 -4.711,-1.6 -4.711,-1.599 -2.032,-1.69 -2.031,-1.69 -6.159,-6.262 -6.158,-6.262 -2.5,0.027 -2.5,0.028 -1.207,0.767 M 451,309.5 v 0.5 h 0.5 0.5 v -0.5 -0.5 h -0.5 -0.5 v 0.5 M 366,371 v 1 h -2 -2 l -0.158,6.25 -0.157,6.25 0.206,1.5 0.206,1.5 0.357,2.193 0.357,2.193 0.681,1.101 0.68,1.101 -1.152,1.388 -1.152,1.388 1.018,3.686 1.018,3.687 1.703,1.881 1.703,1.882 h 2.223 2.223 l 3.872,1.653 3.872,1.653 5.5,0.277 5.5,0.276 3.123,-1.416 3.123,-1.416 1.168,-2.82 1.168,-2.82 -1.535,-2.943 -1.535,-2.944 -0.006,-0.921 -0.006,-0.922 1.573,-1.738 1.573,-1.738 -2.13,-0.676 -2.131,-0.676 -0.918,-2.415 L 393.05,386 h -1.571 -1.57 l -2.5,-2.5 -2.5,-2.5 h -1.544 -1.544 l -1.796,-2.218 -1.796,-2.217 -1.614,1.34 -1.615,1.34 v -1.403 -1.402 l -3.414,-3.22 -3.414,-3.22 H 367.086 366 v 1 m 45.329,1.775 -1.17,0.745 -0.678,2.699 -0.677,2.699 -1.402,1.163 -1.402,1.164 v 1.377 1.378 h 0.777 0.776 l 2.724,-4.2 2.723,-4.2 v -1.8 -1.8 l -0.25,0.015 -0.25,0.016 -1.171,0.744 m -139.436,27.487 -6.607,3.238 -0.671,9.5 -0.671,9.5 -0.584,4.24 -0.584,4.24 -0.888,-0.549 -0.888,-0.549 v 2.368 2.368 l 1.468,1.941 1.468,1.941 0.032,1.518 0.032,1.518 2.361,3.482 2.362,3.482 -0.068,7.045 -0.068,7.044 1.328,3.206 1.328,3.205 1.128,0.015 1.129,0.016 -1.131,0.734 -1.132,0.735 1.145,6.295 1.146,6.295 1.486,0.94 1.486,0.939 1.133,0.016 1.134,0.015 0.473,-2.476 0.474,-2.477 -0.562,-0.561 -0.561,-0.562 -0.36,-2.687 -0.36,-2.687 -1.185,-1.462 -1.186,-1.462 1.861,0.698 1.862,0.699 -0.58,-1.512 -0.58,-1.511 h 0.968 0.969 v 2 2 h 0.786 0.785 l 0.137,1.75 0.137,1.75 0.712,4.5 0.713,4.5 0.987,1.25 0.988,1.25 h -1.029 -1.029 l 0.523,2 0.523,2 h 0.852 0.852 l -0.493,1.286 -0.494,1.285 h -1.814 -1.814 l 0.267,-2.429 0.266,-2.429 -1.186,-1.187 -1.187,-1.187 -1.247,0.416 -1.247,0.416 0.565,0.914 0.565,0.915 h -0.92 -0.921 l 0.507,2.649 0.506,2.648 -1.04,-0.643 -1.04,-0.643 -0.605,1.577 -0.605,1.576 0.015,0.668 0.016,0.668 0.859,-1.357 0.86,-1.357 2.223,0.705 2.223,0.706 -0.597,3.651 -0.596,3.652 -0.08,1.5 -0.08,1.5 -1.054,2.183 -1.055,2.182 0.602,1.568 0.601,1.567 h 1.139 1.138 l -0.608,-1.584 -0.607,-1.583 0.75,0.399 0.751,0.398 3.25,1.283 3.25,1.283 v 2.946 2.946 l -1.434,-0.294 -1.435,-0.294 0.185,1 0.184,1 1,-0.333 1,-0.334 -0.833,0.834 -0.834,0.833 -0.916,0.125 -0.917,0.125 -0.622,0.125 -0.623,0.125 1.245,1.5 1.245,1.5 h -0.68 -0.68 l 2.807,5.167 2.808,5.167 1.781,1.864 1.782,1.865 0.582,2.914 0.583,2.914 2.136,0.304 2.136,0.305 0.313,3.25 0.314,3.25 h 0.714 0.714 l 2.157,-1.511 2.157,-1.51 0.634,1.027 0.635,1.027 1.181,-0.591 1.181,-0.59 -1.796,1.468 -1.797,1.468 -1.953,-0.51 -1.954,-0.511 v 0.942 0.942 l 2.314,2.175 2.315,2.174 h 0.744 0.745 l -0.575,-0.931 -0.576,-0.931 1.171,-0.723 1.171,-0.724 -0.649,1.05 -0.649,1.049 1.745,0.764 1.744,0.764 0.75,-0.159 L 311,560 v 1.5 1.5 h 2.059 2.059 l -0.581,0.94 -0.581,0.941 -3.029,-1.056 -3.029,-1.056 -0.542,0.542 -0.542,0.542 3.343,1.776 3.343,1.777 1.25,-0.247 1.25,-0.247 v 2.103 2.103 l 1,-0.618 1,-0.618 v 0.98 0.979 l 3,0.659 3,0.659 v 0.92 0.921 h 0.943 0.943 l 3.775,2.227 3.775,2.228 2.394,-0.314 2.395,-0.314 -0.673,1.089 -0.672,1.088 2.81,1.081 2.81,1.082 2,0.281 2,0.282 2.5,0.991 2.5,0.991 5.818,0.579 5.819,0.579 -1.216,-1.466 -1.216,-1.465 3.903,0.491 3.903,0.49 1.328,-0.82 1.327,-0.821 -4.526,-1.139 -4.526,-1.14 h -3.547 -3.547 l -4.572,-9.104 -4.573,-9.105 0.37,-0.369 0.369,-0.37 4.399,8.974 4.398,8.974 h 3.551 3.551 l 3.494,1.013 3.493,1.013 4.293,-0.633 4.294,-0.633 -0.375,-1.13 -0.375,-1.13 -3.918,-0.609 -3.919,-0.61 -4,-1.757 -4,-1.757 -5.238,-3.633 -5.238,-3.634 -0.012,-1.009 -0.012,-1.01 -2.25,-1.49 -2.25,-1.491 -1.5,-0.144 -1.5,-0.143 -1.809,-0.107 -1.809,-0.106 0.553,-0.895 0.554,-0.895 -1.699,-0.652 -1.699,-0.652 -8.045,-0.604 -8.046,-0.604 -2.5,-1.929 -2.5,-1.929 -1.098,-3.17 -1.098,-3.17 h -2.995 -2.996 l -2.628,-3.111 -2.629,-3.111 -1.09,-2.868 -1.091,-2.868 1.063,-0.355 1.062,-0.354 V 532.417 531 h 0.833 0.834 l 0.034,-3.25 0.033,-3.25 -1.488,-1.713 -1.489,-1.713 0.747,-1.787 0.747,-1.787 v -3.593 l 0.001,-3.593 -1.715,-2.616 -1.714,-2.617 0.667,-3.035 0.667,-3.036 -2.639,-1.003 -2.638,-1.003 0.592,-0.958 0.592,-0.959 1.468,0.564 1.468,0.563 V 495.107 494 h -1.427 -1.428 l -2.003,-2.547 -2.004,-2.547 -0.675,-3.074 -0.675,-3.075 -1.878,-0.491 -1.878,-0.491 -0.986,-3.571 -0.986,-3.571 0.982,-1.184 0.983,-1.184 -1.513,-1.255 -1.512,-1.255 v -2.318 -2.319 l -1,-0.618 -1,-0.618 v -2.774 -2.775 l -0.719,-0.719 -0.719,-0.719 -0.069,-5.947 -0.069,-5.948 h 1.288 1.288 v -1.365 -1.365 l -2.114,-2.687 -2.113,-2.687 -1.387,-4.607 -1.386,-4.607 v -1.935 -1.934 l 2,-0.523 2,-0.523 v -1.419 -1.418 l -1.533,-2.341 -1.534,-2.34 0.879,-5.606 0.879,-5.605 -0.595,-3.507 -0.596,-3.506 -6.607,3.237 m -58.56,0.405 0.667,0.666 0.667,-0.666 0.666,-0.667 H 214 212.667 l 0.666,0.667 M 347,446.5 v 0.5 h 0.5 0.5 v -0.5 -0.5 h -0.5 -0.5 v 0.5 m -7.5,32.5 0.618,1 h 0.941 0.941 v -1 -1 h -1.559 -1.559 l 0.618,1 m -68.5,7 v 1 h 1.5 1.5 v -1 -1 h -1.5 -1.5 v 1 m 13.57,10.887 -0.548,0.886 1.41,1.171 1.411,1.17 -0.538,-2.057 -0.538,-2.057 h -0.325 -0.324 l -0.548,0.887 M 282,501.5 v 0.5 h 0.5 0.5 v -0.5 -0.5 h -0.5 -0.5 v 0.5 m 3,0 v 0.5 h 0.5 0.5 v -0.5 -0.5 h -0.5 -0.5 v 0.5 m 1,4 v 0.5 h 0.5 0.5 v -0.5 -0.5 h -0.5 -0.5 v 0.5 m 2,17 v 0.5 h 0.5 0.5 v -0.5 -0.5 h -0.5 -0.5 v 0.5 m 9,12 v 0.5 h 0.5 0.5 v -0.5 -0.5 h -0.5 -0.5 v 0.5 m 38,1 v 0.5 h 0.5 0.5 v -0.5 -0.5 h -0.5 -0.5 v 0.5 m -41,4 v 0.5 h 0.5 0.5 v -0.5 -0.5 h -0.5 -0.5 v 0.5 m 1.731,4.42 -0.619,2.368 1.056,-1.056 1.057,-1.057 -0.437,-1.312 -0.437,-1.311 -0.62,2.368 M 298,545.5 v 0.5 h 0.5 0.5 v -0.5 -0.5 h -0.5 -0.5 v 0.5 m 1,5 v 0.5 h 0.5 0.5 v -0.5 -0.5 h -0.5 -0.5 v 0.5 m 97.671,0.224 -2.828,0.424 0.578,1.426 0.579,1.426 0.336,1.25 0.336,1.25 -0.419,-0.75 -0.42,-0.75 h -1.5 -1.5 l 0.415,1.25 0.415,1.25 2.835,1 2.834,1 0.417,-1.25 0.418,-1.25 h 1.264 1.263 l 1.184,-2.25 1.184,-2.25 -0.531,1.75 -0.531,1.75 -0.557,1.371 -0.558,1.371 1.485,0.57 1.484,0.569 3.073,-1.16 3.073,-1.159 v -0.813 -0.813 l 2.114,-0.783 2.114,-0.782 -1.752,-1.752 -1.753,-1.753 -4.329,0.266 -4.329,0.266 -0.699,-0.699 -0.699,-0.699 -1.084,0.15 -1.083,0.15 -2.829,0.424 m 3.142,0.959 1.312,0.525 0.604,-0.604 0.604,-0.604 -1.916,0.079 -1.917,0.079 1.313,0.525 m -62.48,10.984 0.667,0.666 0.667,-0.666 0.666,-0.667 H 338 336.667 l 0.666,0.667 m -2.551,4.882 1.686,4.548 0.349,-1.048 0.35,-1.049 h 1.333 1.333 l 0.505,1.25 0.504,1.25 0.079,-1.25 L 341,570 h 1.5 1.5 v -0.799 -0.799 l -3.369,0.393 -3.37,0.393 -1.078,-3.094 -1.079,-3.094 h -1.004 -1.004 l 1.686,4.549 m -7.063,-2.086 -1.778,1.3 1.447,0.556 1.446,0.555 0.607,-1.58 0.606,-1.58 -0.275,-0.275 -0.275,-0.275 -1.778,1.299 M 316,565.5 v 0.5 h 0.5 0.5 v -0.5 -0.5 h -0.5 -0.5 v 0.5 m 3,3 v 0.5 h 0.5 0.5 v -0.5 -0.5 h -0.5 -0.5 v 0.5 m 17,5 v 0.5 h 0.5 0.5 v -0.5 -0.5 h -0.5 -0.5 v 0.5 m -14.667,1.167 0.667,0.666 0.667,-0.666 0.666,-0.667 H 322 320.667 l 0.666,0.667 M 333,576.5 v 0.5 h 0.5 0.5 v -0.5 -0.5 h -0.5 -0.5 v 0.5 m 4,0 v 0.5 h 0.5 0.5 v -0.5 -0.5 h -0.5 -0.5 v 0.5 m 43.5,3.5 -0.618,1 1.309,-0.07 1.309,-0.071 2,-0.859 2,-0.859 -2.691,-0.071 -2.691,-0.07 -0.618,1 m -22.5,2.5 v 0.5 h 0.5 0.5 v -0.5 -0.5 h -0.5 -0.5 v 0.5 m 6,4 v 0.5 h 0.5 0.5 v -0.5 -0.5 h -0.5 -0.5 v 0.5 m 1.194,1.137 -1.273,1.363 0.79,0.083 0.789,0.084 2.25,0.249 2.25,0.25 v -0.593 -0.592 l -1.767,-1.103 -1.766,-1.103 -1.273,1.362"
         stroke="none"
         fill="#bbbbbb"
         fill-rule="evenodd"
         id="path6"
         style="display:inline"
         sodipodi:nodetypes="ccccccccccccccccccccccccccccccccccccccccccccccccccccccccccccccccccccccccccccccccccccccccccccccccccccccccccccccccccccccccccccccccccccccccccccccccccccccccccccccccccccccccccccccccccccccccccccccccccccccccccccccccccccccccccccccccccccccccccccccccccccccccccccccccccccccccccccccccccccccccccccccccccccccccccccccccccccccccccccccccccccccccccccccccccccccccccccccccccccccccccccccccccccccccccccccccccccccccccccccccccccccccccccccccccccccccccccccccccccccccccccccccccccccccccccccccccccccccccccccccccccccccccccccccccccccccccccccccccccccccccccccccccccccccccccccccccccccccccccccccccccccccccccccccccccccccccccccccccccccccccccccccccccccccccccccccccccccccccccccccccccccccccccccccccccccccccccccccccccccccccccccccccccccccccccccccccccccccccccccccccccccccccccccccccccccccccccccccccccccccccccccccccccccccccccccccccccccccccccccccccccccccccccccccccccccccccccccccccccccccccccccccccccccccccccccccccccccccccccccccccccccccccccccccccccccccccccccccccccccccccccccccccccccccccccccccccccccccccccccccccccccccccccccccccccccccccccccccccccccccccccccccccccccccccccccccccccccccccccccccccccccccccccccccccccccccccccccccccccccccccccccccccccccccccccccccccccccccccccccccccccccccccccccccccccccccccccccccccccccccccccccccccccccccccccccccccccccccccccccccccccccccccccccccccccccccccccccccccccccccccccccccccccccccccccccccccccccccccccccccccccccccccccccccccccccccccccccccccccccccccccccccccccccccccccccccccccccccccccccccccccccccccccccccccccccccccccccccccccccccccccccccccccccccccccccccccccccccccccccccccccccccccccccccccccccccccccccccccccccccccccccccccccccccccccccccccccccccccccccccccccccccccccccccccccccccccccccccccccccccccccccccccccccccccccccccccccccccccccccccccccccccccccccccccccccccccccccccccccccccccccccccccccccccccccccccccccccccccccccccccccccccccccccccccccccccccccccccccccccccccccccccccccccccccccccccccccccccccccccccccccccccccccccccccccccccccccccccccccccccccccccccccccccccccccccccccccccccccccccccccccccccccccccccccccccccccccccccccccccccccccccccccccccccccccccccccccccccccccccccccccccccccccccccccccccccccccccccccccccccccccccccccccccccccccccccccccccccccccccccccccccccccccccccccccccccccccccccccccccccccccccccccccccccccccccccccccccccccccccccccccccccccccccccccccccccccccccccccccccccccccccccccccccccccccccccccccccccccccccccccccccccccccccccccccccccccccccccccccccccccccccccccccccccccccccccccccccccccccccccccccccccccccccccccccccccccccccccccccccccccccccccccccccccccccccccccccccccccccccccccccccccccccccccccccccccccccccccccccccccccccccccccccccccccccccccccccccccccccccccccccccccccccccccccccccccccccccccccccccccccccccccccccccccccccccccccccccccccccccccccccccccccccccccccccccccccccccccccccccccccccccccccccccccccccccc"
         inkscape:label="South_America_Lines" /></g><g
       inkscape:groupmode="layer"
       id="layer2"
       inkscape:label="Chinchansuyu"
       transform="translate(0,-6.3610147)"><path
         d="m 51.347608,30.139113 -0.347927,0.220662 -0.379677,0.731573 -0.379413,0.731573 v 0.354012 0.354278 l 0.935302,0.443706 0.935038,0.443971 0.354277,0.505883 0.354541,0.505883 0.95938,0.155575 0.959379,0.15584 v -0.299244 -0.299244 h -0.234686 -0.234421 l -0.137318,-0.727604 -0.137319,-0.727604 -0.39079,-1.039019 -0.390525,-1.039018 -0.478631,-0.350044 -0.478631,-0.350044 -0.280194,0.004 -0.280194,0.0042 -0.348191,0.220663 m -2.046288,2.649537 -0.251354,0.232569 -0.992187,0.317235 -0.992188,0.316971 v 0.740833 0.740834 l -0.396875,0.329406 -0.396875,0.329406 v 0.464344 0.464344 l -0.399256,0.331258 -0.399256,0.331523 0.1143,1.405467 0.1143,1.405731 -0.290248,0.09657 -0.290248,0.09684 0.839787,0.597959 0.839788,0.597958 v 0.378883 0.378884 h 0.264583 0.264583 v -0.308767 -0.308504 l 0.17489,0.174625 0.174625,0.174889 -0.456671,0.504561 -0.456406,0.504295 0.281781,0.174361 0.281781,0.174096 v 0.513556 0.513556 h -0.264583 -0.264583 v 0.412486 0.412485 l 0.244739,-0.151342 0.24474,-0.151077 0.676275,0.307975 0.676275,0.30824 0.155046,0.48895 0.15531,0.48895 h 0.216165 0.216429 l 0.384704,-0.595313 0.384969,-0.595312 0.172508,-0.882121 0.172773,-0.882121 0.555096,-0.779727 0.555096,-0.779727 1.645973,-0.746125 1.645708,-0.74639 0.579437,-0.736335 0.579173,-0.7366 v -0.320146 -0.320146 l -0.516202,-0.467254 -0.516202,-0.466989 -0.0077,-0.6985 -0.0077,-0.698236 -0.06191,-0.56806 L 54.88953,34.991835 53.836753,34.850548 52.783976,34.70926 52.372284,34.206023 51.960328,33.70305 50.953059,33.129433 49.94579,32.556081 h -0.196585 -0.196586 l -0.251354,0.232569 m 6.260571,7.21016 -0.63156,0.798777 -1.559984,0.75565 -1.559718,0.75565 -0.507471,0.613569 -0.507207,0.613834 -0.162454,0.79375 -0.162189,0.79375 -0.440002,0.859895 -0.440267,0.859896 h -0.28887 -0.288925 l -0.575204,-0.661458 -0.575204,-0.661458 h -0.632354 -0.632355 l -0.14261,-0.545307 -0.14261,-0.545306 0.376502,-0.144462 0.376237,-0.144463 v -0.352954 -0.352954 l -0.284162,-0.175684 -0.284163,-0.175683 -0.620712,0.583142 -0.620448,0.583141 -0.323586,0.780786 -0.323321,0.780785 0.269082,0.582083 0.269346,0.582084 0.287602,0.718079 0.287602,0.718344 -0.254794,0.157162 -0.254529,0.157427 v 0.34925 0.348986 l 0.790839,0.327818 0.79084,0.327555 0.928952,1.02817 0.928952,1.028171 v 0.27014 0.270139 l 0.926042,1.3462 0.926041,1.3462 v 0.225955 0.225954 l 1.296988,2.662502 1.296987,2.662766 0.325438,0.392113 0.325702,0.392377 0.475985,0.856721 0.475986,0.856721 0.450321,0.83132 0.45032,0.831321 0.956998,0.0058 0.956734,0.0061 3.263106,0.09419 3.263106,0.09393 0.125942,-0.203729 0.125941,-0.203729 h 0.645848 0.645848 l -0.0013,-0.198438 -0.0013,-0.198437 -1.613429,-1.058069 -1.613429,-1.058069 -0.394494,-0.794014 -0.394493,-0.794015 -1.099609,-1.10146 -1.099608,-1.101725 -0.463021,-0.508 -0.463021,-0.508265 v -1.72667 -1.726936 l 0.661459,-0.974725 0.661458,-0.974725 v -0.157422 -0.157692 l -0.416983,-0.3048 -0.416984,-0.3048 -0.148431,-1.635918 -0.148167,-1.635654 -0.2286,0.141022 -0.228335,0.141288 V 47.96171 47.460854 l 0.157692,-0.157692 0.157691,-0.157427 0.125942,-1.804723 0.125942,-1.804722 -1.14353,-2.179638 -1.143529,-2.179373 -0.132291,0.01138 -0.132292,0.01138 -0.631825,0.798777"
         stroke="none"
         fill="#ff0000"
         fill-rule="evenodd"
         id="path4"
         style="display:inline;stroke-width:0.264583"
         sodipodi:nodetypes="ccccccccccccccccccccccccccccccccccccccccccccccccccccccccccccccccccccccccccccccccccccccccccccccccccccccccccccccccccccccccccccccccccccccccccccccccccccccccccccccccccccccccccccccccccccccccccccccc"
         inkscape:label="Chinchansuyu_Boundaries" /><rect
         style="opacity:1;fill:#000000;fill-rule:evenodd;stroke-width:0.264583"
         id="rect71"
         width="14.022909"
         height="0.52916873"
         x="32.777325"
         y="53.196384"
         inkscape:label="Chinchansuyu_Text_Line" /><text
         xml:space="preserve"
         transform="matrix(0.26458333,0,0,0.26458333,-34.211866,-70.490787)"
         id="text70"
         style="font-size:16px;white-space:pre;shape-inside:url(#rect70);display:inline;opacity:1;fill:#000000;fill-rule:evenodd"
         inkscape:label="Chinchansuyu_Text"><tspan
           x="137.88672"
           y="472.80236"
           id="tspan3"><tspan
             style="font-weight:bold;font-family:Arial;-inkscape-font-specification:'Arial Bold'"
             id="tspan1">Chinchansuyu</tspan></tspan></text></g><g
       inkscape:groupmode="layer"
       id="layer4"
       inkscape:label="Collasuyu"><path
         d="m 67.038458,60.657045 -0.195528,0.859896 0.0087,1.384564 0.009,1.384565 0.598222,0.96811 0.598488,0.968111 -0.309563,1.156758 -0.309297,1.157023 v 0.63844 0.638439 l 0.652727,0.513292 0.652462,0.513292 0.670454,-0.128059 0.67019,-0.128058 V 69.968262 69.35337 l 0.252941,-0.156369 0.253207,-0.156369 -0.154252,-0.401902 -0.154252,-0.401902 0.528372,-0.581818 0.528109,-0.581819 -0.0098,-0.463021 -0.0095,-0.463021 H 70.833905 70.348924 V 65.913522 65.67963 L 69.819757,65.541253 69.290591,65.402876 V 64.55621 63.709278 l 0.396875,0.1524 0.396875,0.152136 v -0.09155 -0.09181 L 69.691435,62.88986 69.298264,61.949266 68.777828,61.58467 68.257128,61.220074 67.986724,60.50861 67.71632,59.797145 h -0.2413 -0.241035 l -0.195527,0.859896 m 4.102364,6.947429 -0.623358,0.663311 0.440531,0.924189 0.440796,0.923925 h 0.284427 0.284427 l -0.152135,0.246327 -0.1524,0.246327 0.269081,0.166159 0.268816,0.166158 v 0.747712 0.747713 l 0.631825,0.413808 0.631561,0.414073 -0.06376,0.812536 -0.06403,0.812535 -0.155839,0.15584 -0.15584,0.156104 0.645319,1.022085 0.645318,1.02235 0.418307,1.131358 0.418306,1.131623 0.187854,0.79375 0.187854,0.79375 0.562769,0.08149 0.562769,0.08176 0.175154,-0.551656 0.175154,-0.551656 0.64135,-0.420423 0.64135,-0.420158 v -0.341578 -0.341841 l 0.595313,0.149225 0.595312,0.14896 -0.463021,-0.525462 -0.463021,-0.525198 v -0.754327 -0.754063 l 0.247386,-0.812535 0.24765,-0.812536 0.296862,-1.13956 0.296863,-1.139825 0.447675,-0.452173 0.447939,-0.452173 0.478102,-0.737129 0.478367,-0.736865 -0.08149,-0.978429 -0.08123,-0.978429 -0.529166,0.07805 -0.529167,0.07805 -0.661458,0.03784 -0.661459,0.0381 -1.190625,-0.156898 -1.190625,-0.156898 -1.058333,-0.185208 -1.058333,-0.184944 -1.13374,-0.369359 -1.133739,-0.369358 H 71.973201 71.76418 l -0.623358,0.663575 m -0.791898,2.404004 v 0.686065 l -0.529167,0.138377 -0.529166,0.138377 v 0.566208 0.566209 l 0.283633,0.924454 0.283898,0.924189 0.25744,1.5875 0.257439,1.5875 0.150284,1.940984 0.150283,1.941248 -0.294481,0.294481 -0.294746,0.294746 v 0.608541 0.608542 h 0.248179 0.248179 l -0.0098,0.463021 -0.0095,0.463021 0.166158,2.645833 0.165894,2.645833 -0.02487,2.426494 -0.02514,2.426758 -0.209285,0.748242 -0.209021,0.748506 0.383646,0.762529 0.383646,0.762265 -0.167746,1.117864 -0.167481,1.117865 0.553508,1.559192 0.553773,1.55946 0.242094,0.44582 0.241829,0.44556 0.04842,1.60999 0.04842,1.60999 0.555361,-0.16431 0.555625,-0.16457 0.858044,-0.56832 0.858043,-0.56833 0.0019,-0.22463 0.0019,-0.22463 -0.9398,-1.71027 -0.9398,-1.71 0.182828,-1.240374 0.182827,-1.240101 0.247385,-0.160073 0.247385,-0.160073 -0.393964,-0.943239 -0.394229,-0.94324 0.150812,-1.145646 0.151077,-1.145646 0.334434,-0.529166 0.334168,-0.529167 0.296334,-1.124479 0.296333,-1.124479 h 0.386821 0.386556 v -0.232304 -0.23204 l -0.394229,-0.327289 -0.394494,-0.32729 0.1524,-0.606425 0.152136,-0.60669 -0.338138,-0.619918 -0.338402,-0.619919 -0.05636,-0.998008 -0.05636,-0.998273 0.390789,-0.390525 0.390525,-0.390525 0.614098,-0.154252 0.614098,-0.153988 0.161131,-0.805392 0.161131,-0.805391 V 81.902555 81.319943 L 76.18203,81.434772 75.400451,81.549601 75.239849,80.793687 75.079247,80.037772 74.698512,79.16888 74.317776,78.299989 V 77.93116 77.562066 l -0.362479,-0.362479 -0.362744,-0.362744 -0.413808,-0.800365 -0.413808,-0.8001 0.216958,-0.962289 0.216958,-0.962025 -0.631031,-0.413544 -0.631296,-0.413544 v -0.553243 -0.553244 l -0.57785,-1.028171 -0.57785,-1.028171 h -0.2159 -0.2159 v 0.686329 m 7.482417,9.904413 -0.852223,0.798512 0.155839,0.778404 0.155575,0.77814 -0.175948,0.937154 -0.175683,0.93689 -0.91731,0.383381 -0.917575,0.383381 -0.158221,0.412221 -0.158221,0.411956 0.279136,0.336286 0.279135,0.336285 -0.226483,0.366448 -0.226484,0.366183 0.402961,0.615156 0.40296,0.614892 -0.15875,0.633148 -0.159015,0.633148 0.394494,0.32729 0.394229,0.327289 v 0.33364 0.333639 l -0.529166,0.138377 -0.529167,0.138377 v 0.497946 0.497946 l -0.518848,1.017588 -0.518848,1.017587 -0.0344,1.089025 -0.03439,1.08876 0.283104,0.905405 0.283369,0.905404 -0.22913,0.285221 -0.229393,0.28522 -0.181769,1.102258 -0.181504,1.102254 1.008062,1.75287 1.008063,1.7526 0.07937,-0.23786 0.07937,-0.23813 1.180835,-1.23269 1.1811,-1.23243 0.0058,-1.25227 0.0058,-1.252018 0.561446,-1.190625 0.561445,-1.190625 0.198438,-2.778125 0.198702,-2.778125 0.722577,-1.719792 0.722577,-1.719791 -0.297656,-1.128184 -0.297921,-1.128448 v -1.010441 -1.010444 l -0.189177,-0.189177 -0.189177,-0.189177 -0.328348,-1.243807 -0.328348,-1.24407 -0.01164,-0.567002 -0.01164,-0.567003 -0.418571,-0.160602 -0.418571,-0.160602 -0.04445,0.0013 -0.04445,0.0011 -0.851958,0.798777"
         stroke="none"
         fill="#0000ff"
         fill-rule="evenodd"
         id="path1"
         style="display:inline;stroke-width:0.264583"
         sodipodi:nodetypes="cccccccccccccccccccccccccccccccccccccccccccccccccccccccccccccccccccccccccccccccccccccccccccccccccccccccccccccccccccccccccccccccccccccccccccccccccccccccccccccccccccccccccccccccccccccccccccccccccccccccccccccccccccccccccccccccccccccccccccccccccccccccccccccccccccccccccccccc"
         inkscape:label="Collasuyu_Boundaries" /><rect
         style="fill:#000000;fill-rule:evenodd;stroke-width:0.279183"
         id="rect71-1"
         width="15.613163"
         height="0.52916873"
         x="53.390232"
         y="82.289146"
         inkscape:label="Collasuyu_Text_Line" /><text
         xml:space="preserve"
         transform="matrix(0.26458333,0,0,0.26458333,-3.8892213,-41.49611)"
         id="text70-0"
         style="font-size:16px;white-space:pre;shape-inside:url(#rect70-8);display:inline;fill:#000000;fill-rule:evenodd"
         inkscape:label="Collasuyu_Text"><tspan
           x="137.88672"
           y="472.80236"
           id="tspan6"><tspan
             style="font-weight:bold;font-family:Arial;-inkscape-font-specification:'Arial Bold'"
             id="tspan5">Collasuyu</tspan></tspan></text></g><g
       inkscape:groupmode="layer"
       id="layer5"
       inkscape:label="Antisuyu"><path
         d="m 215.328,178.622 -1.718,2.622 -0.429,5.927 -0.428,5.926 1.873,2.038 1.874,2.038 4.156,4.164 4.156,4.163 1.491,3.001 1.491,3.001 6.098,3.999 6.098,3.999 0.005,0.84 0.005,0.839 2.25,1.877 2.25,1.877 1.775,0.034 1.775,0.033 1.022,2.689 1.022,2.689 1.815,1.271 1.815,1.271 1.262,3.045 1.261,3.045 1.747,-3.259 1.747,-3.26 -0.621,-6.478 -0.62,-6.479 -3.178,-2.017 -3.178,-2.017 -1.253,-2.273 -1.253,-2.273 -4.317,-2.727 -4.317,-2.727 -0.002,-1.114 -0.002,-1.114 -4.5,-1.719 -4.5,-1.718 v -0.753 -0.752 l -4.5,-4.565 -4.5,-4.564 v -0.719 -0.718 l -3.078,-3.505 -3.077,-3.505 0.597,-2.377 0.596,-2.377 h -0.496 -0.496 l -1.718,2.622 m 44.943,48.711 0.568,5.505 -1.386,1.831 -1.386,1.831 0.615,3.5 0.615,3.5 2.805,3.421 2.805,3.421 -0.513,0.829 -0.512,0.829 h 2.5 2.5 l 0.536,0.867 0.536,0.868 4.773,0.697 4.773,0.698 5,0.778 5,0.777 1,0.276 1,0.276 1.384,-0.119 1.383,-0.118 -5.383,-4.979 -5.384,-4.979 -1.598,-0.54 -1.598,-0.54 -1.152,-2.528 -1.152,-2.528 v -1.148 -1.149 l -2.626,-2.741 -2.626,-2.74 -1.124,-2.201 -1.124,-2.201 -5.399,-3.45 -5.399,-3.449 0.569,5.506"
         stroke="none"
         fill="#008040"
         fill-rule="evenodd"
         id="path2"
         style="display:inline"
         clip-path="url(#clipPath68)"
         sodipodi:nodetypes="cccccccccccccccccccccccccccccccccccccccccccccccccccccccccccccccccccccccccccccccccccccccc"
         inkscape:label="Antisuyu_Boundaries"
         transform="matrix(0.26458333,0,0,0.26458333,2.3510087,0.00131625)" /><rect
         style="fill:#000000;fill-rule:evenodd;stroke-width:0.314668"
         id="rect71-0-3"
         width="19.284781"
         height="0.5291748"
         x="73.605171"
         y="58.838055"
         inkscape:label="Antisuyu_Text_Line" /><text
         xml:space="preserve"
         transform="matrix(0.26458333,0,0,0.26458333,57.030845,-64.8281)"
         id="text70-0-5"
         style="font-size:16px;white-space:pre;shape-inside:url(#rect70-8-8);display:inline;fill:#000000;fill-rule:evenodd"
         inkscape:label="Antisuyu_Text"><tspan
           x="137.88672"
           y="472.80236"
           id="tspan8"><tspan
             style="font-weight:bold;font-family:Arial;-inkscape-font-specification:'Arial Bold'"
             id="tspan7">Antisuyu</tspan></tspan></text></g><g
       inkscape:groupmode="layer"
       id="layer3"
       inkscape:label="Cuntinsuyu"><path
         d="m 56.438985,59.204747 -0.283634,0.195527 0.05107,0.79375 0.05133,0.79375 0.03413,0.318823 0.03413,0.319088 1.389062,1.407054 1.389063,1.407054 1.852083,1.106223 1.852083,1.106223 0.957792,0.397933 0.957527,0.398198 1.225285,0.935037 1.225021,0.935303 v -0.620184 -0.620448 l 0.2921,-0.837671 0.2921,-0.83767 -0.406664,-0.620448 -0.406665,-0.620713 -0.40005,-1.532466 -0.400315,-1.532732 0.382323,-0.73951 0.382588,-0.739775 V 60.248264 59.87917 l -0.483923,-0.437885 -0.483658,-0.437886 h -0.691357 -0.691091 l -0.142082,0.229659 -0.141816,0.229658 -3.379523,-0.06562 -3.379258,-0.06535 -0.396875,-0.161396 -0.396875,-0.161395 -0.283898,0.195791"
         stroke="none"
         fill="#ff5500"
         fill-rule="evenodd"
         id="path3"
         style="display:inline;stroke-width:0.264583"
         inkscape:label="Cuntinsuyu_Boundaries" /><rect
         style="fill:#000000;fill-rule:evenodd;stroke-width:0.314668"
         id="rect71-0"
         width="19.834352"
         height="0.52916873"
         x="36.486332"
         y="63.238201"
         inkscape:label="Cuntinsuyu_Text_Line" /><text
         xml:space="preserve"
         transform="matrix(0.26458333,0,0,0.26458333,-24.890833,-59.906007)"
         id="text70-0-0"
         style="font-style:normal;font-variant:normal;font-weight:bold;font-stretch:normal;font-size:16px;font-family:Arial;-inkscape-font-specification:'Arial Bold';white-space:pre;shape-inside:url(#rect70-8-0);display:inline;fill:#000000;fill-rule:evenodd"
         inkscape:label="Cuntinsuyu_Text"><tspan
           x="137.88672"
           y="472.61715"
           id="tspan9">Cuntinsuyu</tspan></text></g></g></svg>
